<?xml version="1.0"?>
<svg width="640" height="480" xmlns="http://www.w3.org/2000/svg" xmlns:svg="http://www.w3.org/2000/svg">
 <!-- Created with SVG-edit - https://github.com/SVG-Edit/svgedit-->
 <g class="layer">
  <title>Layer 1</title>
  <rect fill="#FF0000" height="140" id="svg_1" stroke="#000000" stroke-width="5" width="25" x="42.1" y="20.5"/>
  <rect fill="#FF0000" height="25" id="svg_7" stroke="#000000" stroke-dasharray="null" stroke-linecap="null" stroke-linejoin="null" stroke-width="5" width="110" x="41.1" y="17.5"/>
  <rect fill="#FF0000" height="22.5" id="svg_8" stroke="#000000" stroke-width="5" width="59.049999" x="45.1" y="72.5"/>
  <rect fill="#FF0000" height="65.000001" id="svg_9" stroke="#000000" stroke-width="5" width="21" x="114.100003" y="94.5"/>
  <path d="m115.100006,92.5l58.000004,0l0,20.999999l-58.000004,0l0,-20.999999z" fill="#FF0000" id="svg_10" stroke="#000000" stroke-dasharray="null" stroke-linecap="null" stroke-linejoin="null" stroke-width="5"/>
  <rect fill="#FF0000" height="20.999999" id="svg_11" stroke="#000000" stroke-width="5" width="57.000004" x="115.1" y="139.5"/>
  <rect fill="#FF0000" height="16.385644" id="svg_13" stroke="#000000" stroke-width="5" transform="rotate(42.3676 218.235 120.629)" width="72.518122" x="181.976163" y="112.43601"/>
  <rect fill="#FF0000" height="15.184813" id="svg_14" stroke="#000000" stroke-width="5" transform="rotate(141.981 262.1 121)" width="71.843134" x="226.178438" y="113.407595"/>
  <rect fill="#FF0000" height="74.657908" id="svg_19" stroke="#000000" stroke-dasharray="null" stroke-linecap="null" stroke-linejoin="null" stroke-width="5" transform="rotate(-0.774208 288.147 127.993)" width="17.461585" x="279.416408" y="90.663651"/>
  <polygon cx="52.3" cy="340.7" fill="#FF0000" id="svg_20" orient="point" point="5" points="289.79998779296875,24.571075439453125 300.04486083984375,47.311485290527344 331.2413330078125,47.801998138427734 306.37652587890625,62.34685134887695 315.412109375,85.39041137695312 289.79998779296875,71.63922119140625 264.1878662109375,85.39041137695312 273.2235107421875,62.34685134887695 248.35870361328125,47.801998138427734 279.5551452636719,47.311485290527344 289.79998779296875,24.571075439453125 300.04486083984375,47.311485290527344 " r="65.128932" r2="26.051573" shape="star" stroke="#000000" stroke-width="5" strokeWidth="5" strokecolor="#000000"/>
  <rect fill="#FF0000" height="76.171277" id="svg_21" stroke="#000000" stroke-dasharray="null" stroke-linecap="null" stroke-linejoin="null" stroke-width="5" transform="rotate(-0.774208 192.8 126.2)" width="19.650618" x="182.974705" y="88.114373"/>
 </g>
</svg>